<?xml version="1.0" standalone="no"?>
<!DOCTYPE svg PUBLIC "-//W3C//DTD SVG 20010904//EN"
 "http://www.w3.org/TR/2001/REC-SVG-20010904/DTD/svg10.dtd">
<svg version="1.0" xmlns="http://www.w3.org/2000/svg"
 width="512.000000pt" height="512.000000pt" viewBox="0 0 512.000000 512.000000"
 preserveAspectRatio="xMidYMid meet">

<g transform="translate(0.000000,512.000000) scale(0.100000,-0.100000)"
fill="#049974" stroke="none">
<path d="M125 4524 c-45 -23 -85 -65 -106 -109 -18 -38 -19 -85 -19 -937 0
-493 3 -904 6 -913 18 -45 111 -48 134 -5 6 12 10 345 10 902 0 784 2 886 16
906 l15 22 2064 0 2064 0 15 -22 c14 -20 16 -95 16 -615 l0 -593 -75 0 -74 0
-3 511 -3 511 -33 29 -32 29 -195 0 c-182 0 -196 -1 -215 -20 -22 -22 -26 -60
-10 -90 16 -30 67 -40 206 -40 l134 0 0 -465 0 -465 -200 0 -200 0 -32 -29
-33 -29 -3 -551 -2 -551 -1560 0 -1560 0 0 1045 0 1045 1494 2 c1453 3 1494 4
1515 22 27 25 29 86 3 109 -17 16 -139 17 -1555 17 l-1537 0 -32 -29 -33 -29
0 -1130 0 -1130 24 -26 c14 -14 41 -30 60 -36 23 -6 599 -10 1609 -10 l1572 0
0 -75 0 -75 -1691 2 -1691 3 -19 24 c-18 22 -19 42 -19 285 0 250 -1 263 -20
284 -28 30 -82 30 -110 0 -19 -21 -20 -34 -20 -295 0 -225 3 -280 16 -311 19
-47 58 -88 109 -115 40 -22 43 -22 818 -25 l777 -3 0 -33 c0 -52 -37 -182 -71
-252 -65 -132 -205 -244 -304 -244 -97 0 -202 -76 -247 -177 -26 -58 -29 -179
-6 -212 42 -60 -36 -56 1113 -59 578 -2 1074 0 1102 3 97 12 132 74 112 198
-23 139 -137 246 -265 247 -98 0 -238 113 -303 244 -34 70 -71 200 -71 253 l0
33 395 0 394 0 3 -454 3 -454 24 -26 c14 -14 41 -30 60 -36 49 -13 1323 -13
1372 0 19 6 46 22 60 36 l24 26 3 444 3 444 -25 25 c-32 32 -70 32 -101 0 -21
-20 -25 -34 -25 -85 l0 -60 -625 0 -625 0 0 800 0 800 625 0 625 0 0 -583 c0
-573 0 -584 20 -605 28 -30 82 -30 110 0 20 22 20 28 18 651 l-3 629 -33 29
-32 29 -280 0 -280 0 0 608 c0 565 -2 610 -19 647 -19 43 -78 100 -118 116
-15 5 -844 9 -2111 9 -1870 0 -2090 -2 -2117 -16z m2505 -3008 c0 -126 78
-334 166 -443 19 -23 34 -44 34 -47 0 -3 -261 -6 -580 -6 -319 0 -580 3 -580
6 0 3 15 24 34 47 80 100 138 242 158 390 l12 87 378 0 378 0 0 -34z m2340
-526 l0 -270 -625 0 -625 0 0 270 0 270 625 0 625 0 0 -270z m-1769 -135 c36
-19 69 -70 69 -107 l0 -28 -1020 0 -1020 0 0 25 c0 39 27 83 63 105 31 19 57
20 955 20 814 0 927 -2 953 -15z"/>
<path d="M3976 1186 c-59 -22 -88 -47 -113 -96 -42 -81 -25 -188 39 -247 74
-69 202 -69 276 0 76 70 83 214 14 290 -47 52 -150 77 -216 53z m98 -152 c19
-18 21 -65 4 -82 -7 -7 -24 -12 -38 -12 -33 0 -50 17 -50 51 0 32 23 59 50 59
10 0 26 -7 34 -16z"/>
<path d="M3882 2783 c-54 -26 -62 -55 -62 -208 0 -102 4 -143 15 -165 31 -60
32 -60 510 -60 478 0 479 0 510 60 22 42 21 289 -1 331 -29 58 -41 59 -511 59
-375 0 -432 -2 -461 -17z m838 -208 l0 -75 -375 0 -375 0 0 75 0 75 375 0 375
0 0 -75z"/>
<path d="M3841 2234 c-26 -33 -27 -65 -2 -95 l19 -24 487 0 487 0 19 24 c25
30 24 62 -2 95 l-20 26 -484 0 -484 0 -20 -26z"/>
</g>
</svg>
