<?xml version="1.0" standalone="no"?>
<!DOCTYPE svg PUBLIC "-//W3C//DTD SVG 20010904//EN"
 "http://www.w3.org/TR/2001/REC-SVG-20010904/DTD/svg10.dtd">
<svg version="1.0" xmlns="http://www.w3.org/2000/svg"
 width="512.000000pt" height="512.000000pt" viewBox="0 0 512.000000 512.000000"
 preserveAspectRatio="xMidYMid meet">

<g transform="translate(0.000000,512.000000) scale(0.100000,-0.100000)"
fill="#049974" stroke="none">
<path d="M2500 5107 c-13 -7 -153 -123 -310 -259 l-285 -248 -488 0 c-469 0
-489 -1 -527 -20 -26 -13 -47 -34 -60 -60 -19 -37 -20 -58 -20 -437 l0 -398
-385 -320 c-252 -209 -390 -331 -400 -351 -13 -28 -15 -211 -15 -1463 0 -1415
0 -1432 20 -1471 13 -26 34 -47 60 -60 39 -20 54 -20 2470 -20 2416 0 2431 0
2470 20 26 13 47 34 60 60 20 39 20 56 20 1471 0 1252 -2 1435 -15 1463 -10
20 -148 142 -400 351 l-385 320 0 398 c0 379 -1 400 -20 437 -13 26 -34 47
-60 60 -38 19 -58 20 -527 20 l-488 1 -292 253 c-161 140 -303 256 -315 260
-35 9 -80 6 -108 -7z m157 -419 l96 -83 -97 -3 c-53 -1 -139 -1 -192 0 l-96 3
93 82 c52 45 96 82 98 82 2 1 46 -36 98 -81z m1353 -1338 l0 -949 -450 -351
-450 -350 -549 0 -549 0 -451 351 -451 351 0 949 0 949 1450 0 1450 0 0 -950z
m-3202 -545 l-3 -166 -200 155 c-110 86 -198 159 -197 163 2 5 92 82 200 172
l197 164 3 -161 c1 -88 1 -236 0 -327z m3707 322 c99 -83 186 -155 193 -162
10 -9 -27 -43 -180 -161 -106 -83 -199 -154 -205 -158 -10 -6 -13 61 -13 319
0 258 3 325 13 319 6 -5 93 -75 192 -157z m-3499 -1032 c379 -295 689 -540
689 -545 0 -7 -1346 -1061 -1387 -1086 -4 -3 -8 486 -8 1086 0 600 4 1089 8
1086 5 -3 319 -246 698 -541z m3792 -1089 l-3 -545 -695 541 c-382 297 -695
544 -695 548 0 4 313 251 695 548 l695 541 3 -545 c1 -299 1 -789 0 -1088z
m-996 -152 c387 -301 705 -548 707 -550 2 -2 -879 -4 -1958 -4 l-1963 0 707
550 707 550 549 0 548 0 703 -546z"/>
<path d="M2387 4085 c-233 -39 -450 -155 -614 -328 -295 -310 -383 -750 -231
-1152 93 -248 292 -467 535 -589 131 -65 327 -116 451 -116 61 0 117 32 142
80 25 50 25 90 0 140 -26 52 -75 75 -171 84 -208 18 -419 129 -550 289 -64 79
-133 219 -159 321 -24 97 -27 261 -5 356 70 298 288 525 585 606 101 28 301
26 404 -4 277 -80 494 -297 562 -562 38 -151 -9 -411 -92 -508 -44 -52 -81
-72 -133 -72 -73 0 -71 -15 -71 500 0 436 -1 456 -20 488 -60 97 -210 96 -257
-3 -9 -19 -20 -35 -23 -35 -4 0 -33 10 -66 21 -84 30 -216 30 -304 0 -113 -39
-197 -100 -266 -193 -89 -122 -126 -240 -125 -407 1 -282 153 -520 386 -602
120 -43 271 -25 386 44 l56 33 56 -52 c80 -75 145 -97 262 -91 262 12 433 196
506 542 43 208 16 420 -79 610 -216 435 -691 679 -1165 600z m223 -784 c40
-20 94 -94 112 -154 7 -23 12 -87 12 -142 -1 -126 -25 -196 -93 -265 -78 -81
-161 -87 -244 -19 -76 63 -118 163 -119 281 0 94 17 157 56 212 75 106 175
138 276 87z"/>
</g>
</svg>
