<?xml version="1.0" standalone="no"?>
<!DOCTYPE svg PUBLIC "-//W3C//DTD SVG 20010904//EN"
 "http://www.w3.org/TR/2001/REC-SVG-20010904/DTD/svg10.dtd">
<svg version="1.0" xmlns="http://www.w3.org/2000/svg"
 width="512.000000pt" height="512.000000pt" viewBox="0 0 512.000000 512.000000"
 preserveAspectRatio="xMidYMid meet">

<g transform="translate(0.000000,512.000000) scale(0.100000,-0.100000)"
fill="#049974" stroke="none">
<path d="M1179 5101 c-137 -44 -231 -151 -259 -296 -8 -41 -10 -190 -8 -480 3
-403 4 -422 24 -472 64 -155 187 -240 367 -251 l87 -5 0 -307 0 -308 -310
-184 c-356 -210 -422 -256 -503 -353 -118 -141 -177 -308 -177 -500 0 -129 17
-206 79 -365 40 -101 75 -150 106 -150 29 0 64 23 75 50 10 24 5 44 -39 158
-28 71 -55 149 -60 173 -15 66 -13 217 4 284 21 83 77 193 126 248 l41 47
1828 0 1828 0 41 -47 c49 -55 105 -165 126 -248 19 -76 19 -221 0 -296 -28
-107 -503 -1287 -546 -1354 -88 -140 -249 -249 -412 -280 -119 -23 -1962 -22
-2075 0 -123 25 -233 84 -323 174 -41 42 -88 99 -103 126 -15 28 -95 219 -177
425 -92 232 -157 382 -170 393 -12 9 -31 17 -44 17 -34 0 -75 -37 -75 -69 0
-37 294 -772 337 -845 109 -178 268 -300 470 -358 l78 -23 1045 0 1045 0 78
23 c202 58 362 180 469 358 44 72 522 1270 549 1373 26 102 26 270 -1 377 -39
158 -145 322 -268 419 -31 25 -202 131 -379 236 l-323 191 0 308 0 307 88 6
c48 3 107 12 132 21 105 38 194 127 237 236 16 40 18 93 21 465 3 441 -1 502
-40 580 -50 98 -121 159 -226 194 -56 19 -85 21 -340 21 -267 0 -280 -1 -306
-21 -33 -26 -36 -79 -6 -109 19 -19 33 -20 286 -20 160 0 282 -4 309 -11 54
-14 118 -67 148 -123 22 -40 22 -46 22 -466 0 -479 -1 -487 -74 -553 -73 -66
12 -62 -1421 -62 -1433 0 -1348 -4 -1421 62 -73 66 -74 74 -74 553 0 420 0
426 22 466 30 56 94 109 148 123 30 8 319 11 938 11 885 0 893 0 915 20 32 30
30 82 -4 109 -27 21 -31 21 -938 20 -847 0 -915 -1 -967 -18z m2401 -1801 l0
-300 -1020 0 -1020 0 0 300 0 300 1020 0 1020 0 0 -300z m323 -597 l250 -148
-797 -3 c-438 -1 -1154 -1 -1591 0 l-796 3 248 147 248 148 1094 0 1095 0 249
-147z"/>
<path d="M1250 4873 c-8 -3 -23 -12 -32 -21 -17 -14 -18 -50 -18 -483 l0 -468
26 -20 c15 -12 33 -21 40 -21 26 0 62 23 73 47 8 16 11 164 11 469 l0 446 -29
29 c-29 29 -42 33 -71 22z"/>
<path d="M1680 4873 c-8 -3 -23 -12 -32 -21 -17 -14 -18 -50 -18 -483 l0 -468
26 -20 c15 -12 33 -21 40 -21 26 0 62 23 73 47 8 16 11 164 11 469 l0 446 -29
29 c-29 29 -42 33 -71 22z"/>
<path d="M2105 4870 c-51 -20 -50 -12 -53 -489 -2 -480 -2 -481 49 -510 33
-19 81 -1 98 35 8 17 11 161 11 470 l0 446 -29 29 c-31 30 -42 33 -76 19z"/>
<path d="M2530 4867 c-50 -25 -50 -30 -48 -510 l3 -449 28 -24 c35 -30 59 -30
94 0 l28 24 0 461 c0 447 -1 461 -20 480 -28 27 -56 33 -85 18z"/>
<path d="M2940 4852 l-30 -30 0 -446 c0 -309 3 -453 11 -470 17 -36 65 -54 98
-35 51 29 51 30 49 511 -3 432 -4 448 -23 467 -11 11 -32 23 -47 26 -22 6 -33
1 -58 -23z"/>
<path d="M3369 4841 l-24 -19 -3 -459 c-3 -454 -2 -460 18 -486 27 -34 80 -37
110 -7 19 19 20 33 20 485 0 452 -1 466 -20 485 -25 25 -71 26 -101 1z"/>
<path d="M3795 4835 l-25 -24 0 -454 c0 -444 0 -455 21 -481 26 -33 79 -36
109 -6 19 19 20 33 20 483 l0 464 -23 21 c-31 29 -72 28 -102 -3z"/>
<path d="M2325 2118 c-187 -21 -411 -86 -570 -166 -227 -113 -402 -300 -450
-482 -20 -73 -19 -213 1 -281 42 -142 164 -299 309 -396 514 -345 1375 -345
1890 0 92 61 214 192 257 272 51 98 68 165 68 264 0 160 -50 278 -172 407
-241 254 -647 397 -1115 393 -76 -1 -174 -6 -218 -11z m416 -148 c407 -42 752
-211 882 -432 225 -385 -239 -806 -935 -847 -463 -27 -874 96 -1107 330 -124
125 -169 281 -123 425 109 345 693 583 1283 524z"/>
<path d="M2068 1589 c-16 -9 -18 -32 -18 -252 0 -176 3 -246 12 -255 16 -16
70 -16 86 0 9 9 12 79 12 255 0 229 -1 243 -19 253 -25 13 -51 12 -73 -1z"/>
<path d="M2318 1589 c-16 -9 -18 -32 -18 -259 l0 -250 26 -6 c15 -4 39 -3 53
2 l26 9 3 130 3 130 65 -120 c80 -145 88 -155 130 -155 62 0 64 6 64 260 0
126 -3 235 -6 244 -8 20 -66 31 -93 17 -19 -10 -21 -22 -23 -134 l-3 -122 -59
114 c-33 63 -68 123 -78 133 -20 20 -63 23 -90 7z"/>
<path d="M2818 1589 c-16 -9 -18 -32 -18 -254 0 -231 1 -245 19 -255 26 -14
64 -13 79 2 7 7 12 41 12 82 0 50 4 74 16 88 16 17 20 13 83 -80 54 -80 71
-98 94 -100 33 -4 67 22 67 49 0 10 -34 70 -75 134 l-76 115 61 75 c46 56 61
82 58 101 -3 29 -47 60 -71 51 -8 -3 -46 -50 -84 -104 l-68 -98 -3 90 c-2 70
-6 93 -19 103 -20 14 -51 15 -75 1z"/>
</g>
</svg>
