<?xml version="1.0" standalone="no"?>
<!DOCTYPE svg PUBLIC "-//W3C//DTD SVG 20010904//EN"
 "http://www.w3.org/TR/2001/REC-SVG-20010904/DTD/svg10.dtd">
<svg version="1.0" xmlns="http://www.w3.org/2000/svg"
 width="512.000000pt" height="512.000000pt" viewBox="0 0 512.000000 512.000000"
 preserveAspectRatio="xMidYMid meet">

<g transform="translate(0.000000,512.000000) scale(0.100000,-0.100000)"
fill="#049974" stroke="none">
<path d="M1225 5015 l-25 -24 0 -1344 0 -1344 21 -27 c29 -37 89 -37 118 0 21
27 21 27 21 1315 l0 1289 1760 0 1760 0 0 -2320 0 -2320 -1760 0 c-1581 0
-1760 2 -1760 15 0 9 -11 27 -25 40 -32 33 -78 33 -110 0 -22 -21 -25 -33 -25
-95 0 -62 3 -74 25 -95 l24 -25 1871 0 1871 0 24 25 25 24 0 2431 0 2431 -25
24 -24 25 -1871 0 -1871 0 -24 -25z"/>
<path d="M2800 4627 c-49 -16 -133 -102 -148 -153 -7 -24 -12 -100 -12 -178
l0 -136 -176 0 c-110 0 -192 -5 -218 -12 -55 -16 -138 -99 -154 -154 -17 -58
-17 -890 0 -948 16 -55 99 -138 154 -154 31 -9 250 -12 876 -12 948 0 895 -4
971 80 24 26 49 66 55 88 17 55 17 889 0 944 -6 22 -31 62 -55 88 -64 71 -99
80 -315 80 l-178 0 0 136 c0 163 -10 200 -67 264 -69 77 -88 80 -417 79 -174
-1 -294 -5 -316 -12z m615 -172 c24 -23 25 -29 25 -160 l0 -135 -320 0 -320 0
0 135 c0 131 1 137 25 160 l24 25 271 0 271 0 24 -25z m-1015 -935 l0 -480
-55 0 c-46 0 -60 4 -80 25 l-25 24 0 431 0 431 25 24 c20 21 34 25 80 25 l55
0 0 -480z m320 0 l0 -480 -80 0 -80 0 0 480 0 480 80 0 80 0 0 -480z m640 0
l0 -480 -240 0 -240 0 0 480 0 480 240 0 240 0 0 -480z m320 0 l0 -480 -80 0
-80 0 0 480 0 480 80 0 80 0 0 -480z m295 455 l25 -24 0 -431 0 -431 -25 -24
c-20 -21 -34 -25 -80 -25 l-55 0 0 480 0 480 55 0 c46 0 60 -4 80 -25z"/>
<path d="M835 2628 c-138 -140 -178 -186 -207 -243 -63 -122 -61 -105 -67
-675 l-6 -525 -31 -65 c-17 -36 -124 -188 -238 -339 -222 -296 -229 -309 -181
-356 29 -30 74 -33 103 -7 42 36 439 579 461 631 47 111 51 155 51 651 0 270
5 483 10 508 22 94 51 134 216 302 89 91 165 175 169 188 15 50 -30 102 -88
102 -15 0 -74 -53 -192 -172z"/>
<path d="M1854 2780 c-22 -11 -54 -35 -71 -53 -56 -59 -583 -855 -583 -880 0
-13 9 -36 21 -51 27 -35 86 -37 116 -3 11 12 139 200 284 417 145 217 271 402
281 412 11 11 33 18 57 18 71 0 123 -64 123 -152 -1 -44 -16 -76 -161 -338
l-161 -289 0 -74 c0 -180 -38 -422 -91 -581 -78 -235 -223 -417 -381 -478 -56
-22 -64 -31 -273 -281 -153 -184 -215 -266 -215 -284 0 -29 50 -83 77 -83 36
0 65 29 253 255 187 224 194 231 269 270 98 51 223 170 293 279 131 204 205
474 224 816 l7 125 145 260 c79 143 151 278 159 300 51 140 -19 325 -148 389
-68 34 -163 36 -225 6z"/>
<path d="M2505 2535 c-16 -15 -25 -36 -25 -55 0 -19 9 -40 25 -55 l24 -25 951
0 951 0 24 25 c33 32 33 78 0 110 l-24 25 -951 0 -951 0 -24 -25z"/>
<path d="M2265 2055 c-16 -15 -25 -36 -25 -55 0 -19 9 -40 25 -55 l24 -25 271
0 271 0 24 25 c16 15 25 36 25 55 0 19 -9 40 -25 55 l-24 25 -271 0 -271 0
-24 -25z"/>
<path d="M3145 2055 c-16 -15 -25 -36 -25 -55 0 -19 9 -40 25 -55 l24 -25 631
0 631 0 24 25 c16 15 25 36 25 55 0 19 -9 40 -25 55 l-24 25 -631 0 -631 0
-24 -25z"/>
<path d="M2105 1575 c-16 -15 -25 -36 -25 -55 0 -19 9 -40 25 -55 l24 -25 631
0 631 0 24 25 c16 15 25 36 25 55 0 19 -9 40 -25 55 l-24 25 -631 0 -631 0
-24 -25z"/>
<path d="M3705 1575 c-16 -15 -25 -36 -25 -55 0 -19 9 -40 25 -55 l24 -25 351
0 351 0 24 25 c16 15 25 36 25 55 0 19 -9 40 -25 55 l-24 25 -351 0 -351 0
-24 -25z"/>
<path d="M2485 1021 c-56 -26 -122 -83 -215 -187 -44 -49 -98 -98 -119 -109
-61 -32 -71 -44 -71 -85 0 -81 87 -103 172 -44 22 16 85 76 140 135 55 59 110
115 124 123 l24 16 -3 -113 c-2 -126 7 -158 55 -183 32 -17 60 -18 113 -3 31
8 62 33 136 110 l96 99 12 -59 c21 -104 79 -161 166 -161 50 0 97 23 167 83
l53 45 36 -33 c63 -57 206 -95 360 -95 50 0 64 4 84 25 16 15 25 36 25 55 0
19 -9 40 -25 55 -20 21 -34 25 -82 25 -86 0 -193 18 -227 38 -16 9 -39 35 -51
56 -54 96 -127 88 -253 -27 -39 -37 -76 -67 -82 -67 -10 0 -15 17 -25 88 -9
67 -30 110 -67 132 -76 46 -159 14 -257 -101 l-66 -79 -6 87 c-6 101 -25 145
-72 173 -40 25 -90 25 -142 1z"/>
</g>
</svg>
