<?xml version="1.0" standalone="no"?>
<!DOCTYPE svg PUBLIC "-//W3C//DTD SVG 20010904//EN"
 "http://www.w3.org/TR/2001/REC-SVG-20010904/DTD/svg10.dtd">
<svg version="1.0" xmlns="http://www.w3.org/2000/svg"
 width="512.000000pt" height="512.000000pt" viewBox="0 0 512.000000 512.000000"
 preserveAspectRatio="xMidYMid meet">

<g transform="translate(0.000000,512.000000) scale(0.100000,-0.100000)"
fill="#049974" stroke="none">
<path d="M3240 5111 c-52 -17 -89 -42 -126 -85 -22 -24 -372 -469 -779 -989
l-740 -945 -759 -508 c-570 -381 -765 -517 -787 -546 -15 -22 -33 -64 -39 -93
-22 -106 -35 -84 580 -1000 310 -462 575 -853 589 -868 56 -61 157 -90 239
-68 25 7 141 77 280 169 130 87 242 161 248 164 5 4 59 -32 120 -78 132 -103
151 -114 219 -121 74 -8 144 18 195 70 22 23 215 265 428 537 l388 495 101 70
c55 39 424 286 819 550 396 264 737 496 758 515 22 19 47 53 57 75 22 48 25
142 5 189 -7 18 -73 122 -145 230 -73 109 -134 203 -137 211 -3 7 71 110 165
230 139 176 174 227 187 271 26 91 1 175 -73 245 -21 20 -346 277 -723 571
-377 294 -726 566 -776 605 -50 39 -106 79 -124 88 -38 20 -133 29 -170 16z
m131 -170 c24 -16 388 -299 809 -628 494 -386 770 -608 778 -626 12 -24 12
-34 0 -63 -13 -34 -287 -393 -300 -394 -4 0 -176 253 -384 563 -207 309 -386
573 -398 586 -54 60 -183 89 -260 57 -36 -15 -688 -446 -723 -479 -45 -41 -14
-127 46 -127 14 0 59 22 99 49 l73 48 58 -57 c232 -233 576 -301 886 -177 l84
34 195 -292 194 -292 -50 -49 c-104 -101 -186 -244 -224 -389 -14 -51 -19
-104 -18 -200 0 -142 14 -211 64 -322 l29 -63 -547 -366 c-301 -201 -833 -557
-1182 -791 -349 -233 -640 -427 -647 -430 -6 -2 -37 21 -69 52 -231 232 -609
301 -901 166 l-61 -29 -198 294 -199 295 42 37 c160 144 255 362 256 592 0
128 -16 210 -63 323 -16 39 -29 71 -27 72 1 1 425 284 942 629 517 346 953
642 968 658 32 34 31 68 -3 102 -36 37 -61 25 -351 -168 -153 -102 -279 -184
-279 -181 0 10 1202 1540 1231 1568 38 35 73 35 130 -2z m377 -654 c12 -7 86
-107 163 -223 l139 -209 -49 -23 c-228 -105 -529 -47 -720 138 l-43 42 216
144 c223 148 245 158 294 131z m1012 -1488 c143 -214 155 -242 130 -290 -15
-27 -430 -303 -440 -292 -5 4 -21 44 -36 88 -25 71 -28 94 -28 205 0 111 3
134 28 205 15 44 43 105 62 137 37 61 120 158 135 158 5 0 72 -95 149 -211z
m-4130 -616 c90 -237 41 -502 -124 -680 l-62 -67 -138 203 c-75 111 -142 215
-147 230 -20 58 1 80 221 230 113 77 210 140 217 140 6 1 21 -25 33 -56z
m2152 -1350 c-59 -76 -174 -222 -255 -325 -81 -103 -158 -194 -170 -203 -26
-18 -64 -19 -93 -2 -11 7 -55 39 -97 72 -51 39 -73 63 -67 69 16 16 774 525
783 526 4 0 -41 -62 -101 -137z m-1327 -178 c98 -20 223 -85 295 -152 33 -30
60 -58 60 -63 0 -14 -426 -290 -447 -290 -53 0 -76 25 -215 233 -76 114 -136
212 -133 217 6 9 143 56 185 63 58 10 190 6 255 -8z"/>
<path d="M3800 3167 c-192 -130 -195 -133 -198 -170 -4 -50 19 -77 65 -77 26
0 75 28 227 130 165 109 195 134 201 159 11 50 -24 92 -77 90 -13 0 -111 -60
-218 -132z"/>
<path d="M2357 3195 c-388 -74 -683 -349 -783 -730 -36 -136 -38 -327 -6 -458
78 -316 299 -575 592 -694 85 -34 184 -57 215 -49 44 11 66 97 31 125 -6 5
-47 19 -91 31 -469 127 -731 615 -576 1074 42 127 100 218 205 321 160 157
319 229 541 242 401 23 762 -248 856 -642 30 -127 24 -312 -16 -435 -81 -254
-275 -456 -520 -540 -76 -26 -95 -44 -95 -90 0 -80 62 -89 201 -31 215 89 395
261 499 475 79 162 94 229 94 436 0 162 -2 182 -27 263 -107 349 -365 596
-715 688 -103 27 -299 34 -405 14z"/>
<path d="M2126 2799 c-33 -26 -34 -69 -4 -111 l21 -31 -34 -61 c-31 -56 -34
-68 -34 -146 0 -68 5 -93 22 -126 53 -100 157 -151 288 -141 l71 5 108 -160
c67 -99 105 -163 99 -169 -5 -5 -38 -14 -74 -20 -35 -6 -74 -13 -85 -15 -26
-5 -49 -54 -40 -89 3 -13 18 -32 32 -42 23 -15 35 -15 105 -5 43 6 96 20 118
31 l40 21 21 -35 c37 -60 84 -72 125 -30 32 31 32 66 0 113 -22 33 -23 38 -10
57 57 78 70 118 70 215 0 90 -2 98 -36 160 -40 73 -98 123 -162 141 -26 7 -82
9 -145 6 l-103 -5 -80 119 c-44 66 -77 124 -74 129 3 6 28 10 54 10 65 0 95
24 95 75 0 60 -31 79 -119 72 -38 -3 -83 -11 -98 -18 -26 -12 -30 -11 -40 6
-35 64 -85 80 -131 44z m174 -379 l61 -90 -39 0 c-53 0 -92 41 -99 104 -5 42
0 76 11 76 3 0 33 -40 66 -90z m461 -226 c56 -52 75 -139 45 -209 l-12 -30
-83 123 c-109 163 -107 156 -37 150 45 -4 63 -11 87 -34z"/>
<path d="M1188 1419 c-220 -146 -228 -153 -228 -195 0 -37 37 -74 74 -74 22 0
391 241 413 269 14 18 16 50 7 76 -6 15 -54 45 -73 45 -5 0 -92 -55 -193 -121z"/>
</g>
</svg>
