<?xml version="1.0" standalone="no"?>
<!DOCTYPE svg PUBLIC "-//W3C//DTD SVG 20010904//EN"
 "http://www.w3.org/TR/2001/REC-SVG-20010904/DTD/svg10.dtd">
<svg version="1.0" xmlns="http://www.w3.org/2000/svg"
 width="512.000000pt" height="512.000000pt" viewBox="0 0 512.000000 512.000000"
 preserveAspectRatio="xMidYMid meet">

<g transform="translate(0.000000,512.000000) scale(0.100000,-0.100000)"
fill="#049974" stroke="none">
<path d="M2370 5114 c-19 -2 -78 -9 -130 -15 -548 -62 -1083 -325 -1489 -730
-405 -406 -652 -907 -732 -1489 -18 -125 -18 -515 0 -640 80 -582 327 -1083
732 -1489 724 -724 1796 -946 2753 -571 561 220 1058 671 1334 1212 355 694
374 1529 51 2228 -111 239 -157 301 -210 285 -27 -9 -59 -45 -59 -67 0 -11 29
-74 64 -141 165 -312 268 -677 279 -987 l2 -75 -266 -3 -266 -2 -12 145 c-15
179 -34 291 -59 348 -27 59 -92 137 -139 167 -39 24 -41 28 -63 125 -30 134
-90 327 -139 450 -22 54 -39 100 -38 100 23 14 209 158 257 199 l65 57 60 -68
c124 -141 142 -156 172 -149 37 9 63 41 63 77 0 34 -61 111 -209 263 -405 415
-900 667 -1476 752 -96 14 -472 27 -545 18z m110 -784 l0 -640 -54 0 c-80 0
-274 27 -404 56 -203 45 -449 139 -629 240 l-64 36 47 86 c271 504 660 809
1097 861 4 1 7 -287 7 -639z m338 604 c342 -85 659 -361 901 -784 67 -116 70
-126 54 -138 -51 -39 -317 -158 -448 -201 -217 -71 -476 -121 -631 -121 l-54
0 0 639 0 639 43 -5 c23 -3 84 -16 135 -29z m-1073 -126 c-178 -144 -369 -383
-492 -614 -25 -46 -48 -84 -53 -84 -23 0 -270 201 -270 220 0 16 182 160 302
240 65 43 164 102 220 131 98 50 302 138 323 139 5 0 -8 -15 -30 -32z m1717
-14 c146 -58 295 -137 433 -229 112 -75 295 -221 295 -235 0 -19 -247 -220
-270 -220 -5 0 -29 38 -53 85 -122 229 -315 470 -492 613 -22 17 -37 32 -33
32 3 0 57 -20 120 -46z m-2552 -655 c48 -42 197 -156 227 -173 1 -1 -16 -47
-38 -101 -49 -123 -109 -316 -140 -451 -22 -100 -23 -101 -66 -129 -49 -31
-114 -110 -138 -169 -23 -54 -42 -170 -56 -341 l-13 -145 -262 0 c-164 0 -265
4 -269 10 -9 14 11 217 35 354 53 303 179 618 354 886 65 99 172 238 234 302
40 42 29 46 132 -43z m482 -322 c276 -140 539 -221 851 -262 65 -8 145 -15
178 -15 l59 0 0 -73 0 -74 -152 -6 c-83 -4 -239 -7 -347 -7 -108 0 -348 -5
-534 -11 -186 -6 -340 -9 -343 -7 -11 12 147 518 162 518 1 0 58 -28 126 -63z
m2476 31 c62 -158 158 -475 148 -486 -3 -2 -157 1 -343 7 -186 6 -426 11 -534
11 -108 0 -264 3 -347 7 l-152 6 0 74 0 73 59 0 c33 0 113 7 178 15 313 41
581 124 848 262 66 34 122 62 125 62 3 1 11 -14 18 -31z m-198 -629 c195 -6
373 -15 395 -21 60 -15 118 -60 147 -115 43 -78 62 -241 62 -523 0 -283 -19
-445 -62 -524 -29 -53 -90 -100 -152 -116 -86 -22 -1368 -41 -2163 -31 -304 4
-329 3 -347 -14 -23 -21 -27 -72 -7 -99 21 -29 89 -35 403 -35 160 -1 346 -4
412 -8 l122 -6 0 -74 0 -73 -59 0 c-33 0 -113 -7 -178 -15 -313 -41 -580 -123
-852 -262 -68 -35 -125 -62 -126 -61 -16 22 -111 304 -136 403 -11 44 -22 88
-25 98 -5 16 4 18 112 16 116 -1 119 -1 141 26 29 33 29 57 -1 91 -23 27 -26
28 -163 34 -131 6 -143 8 -194 36 -71 41 -112 106 -128 206 -40 260 -40 558 0
813 20 126 85 207 184 233 36 10 566 28 1020 36 283 5 1218 -4 1595 -15z
m-2971 -881 c15 -168 34 -281 56 -334 24 -59 89 -138 138 -169 43 -28 44 -29
66 -129 31 -135 91 -328 140 -451 22 -54 39 -100 38 -100 -24 -14 -209 -157
-256 -199 l-65 -56 -24 22 c-44 41 -185 221 -248 318 -175 267 -301 583 -354
886 -16 96 -40 296 -40 342 0 9 60 12 268 12 l269 0 12 -142z m4266 70 c-40
-459 -159 -816 -389 -1168 -63 -96 -204 -276 -248 -317 l-23 -22 -65 56 c-48
41 -236 185 -257 198 -1 0 16 46 38 100 49 123 109 316 140 451 22 100 23 101
67 129 54 35 125 128 146 193 22 70 56 329 56 430 l0 22 271 0 270 0 -6 -72z
m-949 -665 c-3 -10 -14 -54 -25 -98 -25 -98 -120 -380 -136 -403 -1 -1 -58 26
-126 60 -279 142 -537 221 -852 263 -65 8 -145 15 -178 15 l-59 0 0 73 0 74
152 6 c83 4 260 8 392 8 133 1 329 5 436 9 377 13 402 12 396 -7z m-1536 -952
l0 -639 -42 5 c-407 52 -797 365 -1062 855 l-47 87 64 35 c298 167 725 290
1020 295 l67 1 0 -639z m387 624 c264 -35 513 -109 748 -225 77 -37 148 -74
158 -82 16 -12 13 -22 -54 -138 -200 -349 -434 -583 -715 -717 -89 -42 -231
-84 -321 -96 l-43 -5 0 639 0 639 54 0 c30 0 108 -7 173 -15z m-1626 -467
c109 -216 325 -492 482 -618 31 -24 55 -46 53 -48 -7 -6 -227 88 -329 140 -54
28 -151 86 -215 129 -122 81 -302 224 -302 239 0 19 247 220 271 220 5 0 23
-28 40 -62z m2766 4 c90 -68 183 -150 183 -162 0 -16 -182 -160 -302 -240 -65
-43 -162 -101 -216 -128 -100 -52 -321 -146 -327 -140 -2 2 23 26 57 53 162
133 369 400 477 613 17 34 35 62 40 62 5 0 45 -26 88 -58z"/>
<path d="M1401 3014 c-12 -15 -21 -32 -21 -39 0 -6 65 -200 145 -431 157 -453
163 -464 230 -464 66 0 72 12 219 455 75 226 136 422 136 438 0 57 -73 88
-118 50 -13 -12 -57 -129 -128 -345 -60 -180 -110 -326 -111 -324 -2 1 -54
151 -118 332 -67 193 -121 334 -132 341 -30 23 -79 16 -102 -13z"/>
<path d="M2301 3021 c-21 -21 -21 -29 -21 -461 0 -427 1 -441 20 -460 30 -30
83 -27 109 6 19 24 21 40 21 174 l0 147 113 5 c128 5 178 22 247 84 154 140
123 387 -61 489 -53 30 -56 30 -231 33 -168 3 -177 3 -197 -17z m359 -152
c110 -62 101 -217 -14 -270 -30 -13 -65 -19 -128 -19 l-88 0 0 155 0 155 96 0
c80 0 103 -4 134 -21z"/>
<path d="M3039 3021 l-24 -19 0 -440 c0 -419 1 -441 19 -461 22 -25 73 -28
102 -7 18 14 19 32 24 323 l5 308 204 -295 c112 -162 213 -305 224 -317 29
-33 86 -31 118 3 l24 26 -3 421 c-3 385 -5 424 -21 447 -26 36 -79 39 -109 7
-23 -24 -23 -24 -20 -325 2 -231 0 -298 -9 -289 -6 7 -104 147 -218 312 -114
165 -214 306 -223 313 -23 18 -66 15 -93 -7z"/>
</g>
</svg>
