<?xml version="1.0" standalone="no"?>
<!DOCTYPE svg PUBLIC "-//W3C//DTD SVG 20010904//EN"
 "http://www.w3.org/TR/2001/REC-SVG-20010904/DTD/svg10.dtd">
<svg version="1.0" xmlns="http://www.w3.org/2000/svg"
 width="194.000000pt" height="258.000000pt" viewBox="0 0 194.000000 258.000000"
 preserveAspectRatio="xMidYMid meet">
<metadata>
Created by potrace 1.16, written by Peter Selinger 2001-2019
</metadata>
<g transform="translate(0.000000,258.000000) scale(0.100000,-0.100000)"
fill="#000000" stroke="none">
<path d="M1106 2276 c-19 -63 -19 -66 -7 -66 5 0 14 12 19 28 l10 27 7 -28 c4
-17 2 -46 -5 -70 -7 -23 -14 -48 -16 -54 -7 -27 -26 -13 -19 14 5 23 4 25 -9
14 -8 -7 -18 -21 -21 -32 -9 -27 -32 -23 -47 8 -20 40 -34 38 -52 -7 -17 -43
-27 -48 -46 -26 -9 12 -6 24 14 59 14 24 26 56 26 72 0 23 2 26 15 15 12 -10
16 -9 21 4 8 22 2 28 -35 32 -33 4 -50 -11 -32 -29 17 -17 13 -44 -15 -88 -24
-39 -25 -44 -12 -78 9 -24 21 -37 36 -39 21 -3 28 6 47 63 6 18 8 16 21 -13
13 -33 14 -33 61 -26 27 3 50 8 51 9 2 2 13 -6 23 -16 23 -23 47 -19 92 12 27
20 27 20 27 -1 0 -12 7 -34 15 -50 18 -35 96 -66 190 -76 53 -6 63 -9 54 -20
-16 -19 -4 -44 21 -44 11 0 28 -5 38 -11 14 -9 27 -8 55 6 39 18 52 47 17 38
-11 -3 -23 -9 -26 -14 -3 -5 -10 -9 -17 -9 -8 0 -8 3 1 12 20 20 14 28 -14 18
-14 -6 -30 -10 -35 -10 -15 0 -10 30 6 36 30 12 13 21 -50 28 -85 9 -187 41
-210 66 -15 17 -17 31 -11 100 3 44 9 93 12 110 4 19 2 30 -5 30 -15 0 -31
-43 -31 -86 0 -41 -22 -89 -45 -98 -9 -3 -31 -6 -48 -6 l-31 0 26 28 c27 29
48 64 48 81 0 6 -13 11 -30 11 -25 0 -30 4 -30 25 0 31 -22 105 -32 105 -3 0
-14 -24 -22 -54z"/>
<path d="M746 2209 c-30 -23 -33 -45 -11 -69 14 -15 14 -18 0 -30 -8 -7 -15
-25 -15 -40 0 -29 -15 -40 -56 -40 -19 0 -31 11 -52 46 -37 65 -85 127 -99
132 -19 6 -16 -23 4 -39 9 -8 36 -45 61 -84 24 -38 51 -76 60 -82 23 -19 60
-16 97 7 19 11 39 19 46 18 8 -2 15 7 17 18 2 16 -4 24 -24 31 l-27 9 34 21
c38 25 49 18 49 -34 0 -18 5 -33 11 -33 7 0 10 18 7 50 -2 34 1 50 9 50 11 0
33 30 33 45 0 3 -11 3 -24 -1 -17 -4 -30 1 -49 20 -31 31 -37 32 -71 5z"/>
<path d="M480 2043 c1 -18 16 -31 40 -34 42 -6 38 -42 -12 -95 -33 -35 -51
-46 -77 -47 -49 -3 -63 24 -31 58 13 14 37 29 54 33 46 12 45 32 -1 25 -55 -7
-87 -34 -91 -73 -8 -77 85 -108 152 -50 64 57 80 127 39 173 -16 17 -73 24
-73 10z"/>
<path d="M1610 510 c0 -5 -7 -10 -15 -10 -9 0 -15 -9 -15 -21 0 -12 -16 -41
-35 -65 -57 -69 -43 -104 26 -68 29 15 30 15 20 -5 -25 -46 -86 -66 -111 -36
-7 9 -25 51 -40 93 -28 77 -52 100 -58 54 -2 -13 1 -21 8 -20 6 2 22 -26 35
-61 39 -107 74 -138 125 -111 34 18 81 90 74 114 -9 30 -8 30 -56 5 l-43 -22
53 56 c35 37 52 64 52 81 0 14 -4 26 -10 26 -5 0 -10 -4 -10 -10z"/>
<path d="M650 498 c-6 -32 -7 -257 -2 -264 14 -22 52 -34 106 -34 34 0 57 -5
60 -12 5 -10 7 -10 12 0 3 7 21 19 39 26 38 16 89 85 83 113 -3 14 -12 18 -45
16 -34 -1 -41 1 -36 14 3 8 0 39 -7 69 -11 44 -16 52 -25 42 -12 -12 -45 -102
-45 -120 0 -18 21 4 34 35 l14 32 0 -50 c0 -64 -19 -129 -39 -133 -13 -2 -16
5 -15 35 1 34 -2 38 -27 41 -22 3 -31 -3 -45 -27 -20 -36 -28 -38 -41 -13 -7
13 -6 49 1 109 11 89 8 123 -12 123 -5 0 -10 -1 -10 -2z"/>
<path d="M1160 414 c0 -48 3 -65 13 -61 6 2 12 14 11 27 -1 22 0 22 13 4 8
-11 13 -38 12 -64 -1 -25 1 -52 5 -61 5 -13 -1 -19 -25 -28 -50 -17 -68 -14
-75 15 -9 35 -36 27 -48 -14 -10 -35 -18 -39 -35 -18 -10 11 -8 23 8 55 12 22
21 50 21 61 0 17 3 19 18 11 14 -8 18 -6 19 10 1 10 -1 19 -5 20 -54 9 -72 5
-72 -12 0 -11 5 -19 10 -19 16 0 12 -22 -12 -66 -19 -37 -20 -45 -9 -73 19
-43 59 -44 68 -1 6 34 18 39 26 10 8 -31 35 -35 86 -14 40 17 50 18 73 6 36
-17 101 -1 123 31 23 33 20 103 -7 121 -16 12 -25 13 -35 4 -22 -18 -12 -53
15 -52 27 1 28 -20 2 -46 -13 -13 -33 -20 -59 -20 l-40 0 15 35 c19 45 19 95
0 95 -8 0 -18 -4 -21 -10 -11 -18 -22 -10 -32 25 -11 34 -11 35 14 29 21 -6
24 -3 21 12 -4 21 -48 33 -48 13 0 -9 -4 -8 -15 1 -8 7 -15 19 -15 26 0 8 -4
14 -10 14 -6 0 -10 -29 -10 -66z"/>
</g>
</svg>
